HIERARCHY
ROOT Hips
{
	OFFSET 0.000000 87.230942 0.000000
	CHANNELS 6 Xposition Yposition Zposition Xrotation Yrotation Zrotation
	JOINT Pelvis
	{
		OFFSET 0.000000 0.000000 0.000000
		CHANNELS 3 Xrotation Yrotation Zrotation
		JOINT LeftUpLeg
		{
			OFFSET 12.017000 -9.376404 -2.439400
			CHANNELS 3 Xrotation Yrotation Zrotation
			JOINT LeftLeg
			{
				OFFSET -0.007312 -32.846973 2.110600
				CHANNELS 3 Xrotation Yrotation Zrotation
				JOINT LeftFoot
				{
					OFFSET 0.007312 -32.065170 -0.570400
					CHANNELS 3 Xrotation Yrotation Zrotation
					JOINT LeftToeBase
					{
						OFFSET 0.728300 -11.045900 13.180700
						CHANNELS 3 Xrotation Yrotation Zrotation
						End Site
						{
							OFFSET 0.000000 17.212589 0.000000
						}
					}
				}
				JOINT LeftPantLeg
				{
					OFFSET 0.002788 -16.709013 -3.143600
					CHANNELS 3 Xrotation Yrotation Zrotation
					End Site
					{
						OFFSET -0.605125 24.528742 0.000000
					}
				}
			}
			JOINT Left_Butt
			{
				OFFSET -6.630234 1.326584 -3.183700
				CHANNELS 3 Xrotation Yrotation Zrotation
				End Site
				{
					OFFSET -0.498041 20.188049 0.000000
				}
			}
		}
		JOINT RightUpLeg
		{
			OFFSET -11.717000 -9.376404 -2.439400
			CHANNELS 3 Xrotation Yrotation Zrotation
			JOINT RightLeg
			{
				OFFSET -0.003241 -32.846912 2.110600
				CHANNELS 3 Xrotation Yrotation Zrotation
				JOINT RightFoot
				{
					OFFSET 0.003241 -32.065136 -0.570500
					CHANNELS 3 Xrotation Yrotation Zrotation
					JOINT RightToeBase
					{
						OFFSET -0.728300 -11.045901 13.180700
						CHANNELS 3 Xrotation Yrotation Zrotation
						End Site
						{
							OFFSET 0.000000 17.212593 0.000000
						}
					}
				}
				JOINT RightPantLeg
				{
					OFFSET 0.008142 -16.708982 -3.143700
					CHANNELS 3 Xrotation Yrotation Zrotation
					End Site
					{
						OFFSET 0.605088 24.528715 0.000000
					}
				}
			}
			JOINT Right_Butt
			{
				OFFSET 6.630732 1.326584 -3.183700
				CHANNELS 3 Xrotation Yrotation Zrotation
				End Site
				{
					OFFSET 0.498015 20.188240 0.000000
				}
			}
		}
	}
	JOINT Spine
	{
		OFFSET -0.062400 7.848404 3.918300
		CHANNELS 3 Xrotation Yrotation Zrotation
		JOINT Spine1
		{
			OFFSET -0.072800 11.422302 0.713400
			CHANNELS 3 Xrotation Yrotation Zrotation
			JOINT Spine2
			{
				OFFSET -0.083200 13.054001 -1.931600
				CHANNELS 3 Xrotation Yrotation Zrotation
				JOINT Neck
				{
					OFFSET -0.092200 14.121796 -5.138800
					CHANNELS 3 Xrotation Yrotation Zrotation
					JOINT Head
					{
						OFFSET 0.000200 10.447403 -0.842000
						CHANNELS 3 Xrotation Yrotation Zrotation
						JOINT Visor
						{
							OFFSET 0.457100 25.671204 16.550400
							CHANNELS 3 Xrotation Yrotation Zrotation
							End Site
							{
								OFFSET 0.000000 26.061493 0.000000
							}
						}
						JOINT HairMidA
						{
							OFFSET 0.459400 31.585403 8.437400
							CHANNELS 3 Xrotation Yrotation Zrotation
							End Site
							{
								OFFSET 0.000000 26.061493 0.000000
							}
						}
						JOINT HairMidB
						{
							OFFSET 0.464000 33.309204 -8.389700
							CHANNELS 3 Xrotation Yrotation Zrotation
							End Site
							{
								OFFSET 0.000000 26.061493 0.000000
							}
						}
						JOINT HairMidC
						{
							OFFSET 0.466600 27.991196 -17.375099
							CHANNELS 3 Xrotation Yrotation Zrotation
							End Site
							{
								OFFSET 0.000000 26.061493 0.000000
							}
						}
						JOINT HairMidD
						{
							OFFSET 0.467700 17.888092 -21.169500
							CHANNELS 3 Xrotation Yrotation Zrotation
							End Site
							{
								OFFSET 0.000000 26.061493 0.000000
							}
						}
						JOINT HairMidE
						{
							OFFSET 5.325700 3.514603 -14.369699
							CHANNELS 3 Xrotation Yrotation Zrotation
							End Site
							{
								OFFSET 0.000000 26.061493 0.000000
							}
						}
						JOINT HairMidF
						{
							OFFSET -4.394100 3.514603 -14.372400
							CHANNELS 3 Xrotation Yrotation Zrotation
							End Site
							{
								OFFSET 0.000000 26.061493 0.000000
							}
						}
						JOINT HairLeftA
						{
							OFFSET 15.319900 25.746506 2.623300
							CHANNELS 3 Xrotation Yrotation Zrotation
							End Site
							{
								OFFSET 0.000000 26.061493 0.000000
							}
						}
						JOINT HairLeftB
						{
							OFFSET 12.619500 29.289398 -8.731499
							CHANNELS 3 Xrotation Yrotation Zrotation
							End Site
							{
								OFFSET 0.000000 26.061493 0.000000
							}
						}
						JOINT HairLeftC
						{
							OFFSET 15.714800 15.959900 2.909800
							CHANNELS 3 Xrotation Yrotation Zrotation
							End Site
							{
								OFFSET 0.000000 26.061493 0.000000
							}
						}
						JOINT HairLeftD
						{
							OFFSET 16.101700 18.437408 -7.553200
							CHANNELS 3 Xrotation Yrotation Zrotation
							End Site
							{
								OFFSET 0.000000 26.061493 0.000000
							}
						}
						JOINT HairLeftE
						{
							OFFSET 9.731900 17.915009 -18.316799
							CHANNELS 3 Xrotation Yrotation Zrotation
							End Site
							{
								OFFSET 0.000000 26.061493 0.000000
							}
						}
						JOINT HairLeftF
						{
							OFFSET 11.204300 4.953598 -9.668100
							CHANNELS 3 Xrotation Yrotation Zrotation
							End Site
							{
								OFFSET 0.000000 26.061493 0.000000
							}
						}
						JOINT HairRightA
						{
							OFFSET -14.397900 25.746307 2.615100
							CHANNELS 3 Xrotation Yrotation Zrotation
							End Site
							{
								OFFSET 0.000000 26.061493 0.000000
							}
						}
						JOINT HairRightB
						{
							OFFSET -11.691200 29.289200 -8.738199
							CHANNELS 3 Xrotation Yrotation Zrotation
							End Site
							{
								OFFSET 0.000000 26.061493 0.000000
							}
						}
						JOINT HairRightC
						{
							OFFSET -14.792900 15.959702 2.901400
							CHANNELS 3 Xrotation Yrotation Zrotation
							End Site
							{
								OFFSET 0.000000 26.061493 0.000000
							}
						}
						JOINT HairRightD
						{
							OFFSET -15.174000 18.437195 -7.561900
							CHANNELS 3 Xrotation Yrotation Zrotation
							End Site
							{
								OFFSET 0.000000 26.061493 0.000000
							}
						}
						JOINT HairRightE
						{
							OFFSET -8.798200 17.914902 -18.322001
							CHANNELS 3 Xrotation Yrotation Zrotation
							End Site
							{
								OFFSET 0.000000 26.061493 0.000000
							}
						}
						JOINT HairRightF
						{
							OFFSET -10.275200 4.953506 -9.674099
							CHANNELS 3 Xrotation Yrotation Zrotation
							End Site
							{
								OFFSET 0.000000 26.061493 0.000000
							}
						}
					}
				}
				JOINT LeftShoulder
				{
					OFFSET 5.133500 7.341202 -1.867600
					CHANNELS 3 Xrotation Yrotation Zrotation
					JOINT LeftArm
					{
						OFFSET 8.072663 0.936867 -2.176600
						CHANNELS 3 Xrotation Yrotation Zrotation
						JOINT LeftForeArm
						{
							OFFSET 31.271999 0.000000 0.000000
							CHANNELS 3 Xrotation Yrotation Zrotation
							JOINT LeftHand
							{
								OFFSET 31.771030 0.000000 0.000000
								CHANNELS 3 Xrotation Yrotation Zrotation
								JOINT LeftHandThumb1
								{
									OFFSET 2.886520 -2.557846 4.416640
									CHANNELS 3 Xrotation Yrotation Zrotation
									JOINT LeftHandThumb2
									{
										OFFSET 2.371025 -1.368912 1.368911
										CHANNELS 3 Xrotation Yrotation Zrotation
										JOINT LeftHandThumb3
										{
											OFFSET 2.243378 -1.295212 1.295213
											CHANNELS 3 Xrotation Yrotation Zrotation
											End Site
											{
												OFFSET -0.332611 2.876945 0.020015
											}
										}
									}
								}
								JOINT LeftHandIndex1
								{
									OFFSET 8.568985 -0.641945 3.119977
									CHANNELS 3 Xrotation Yrotation Zrotation
									JOINT LeftHandIndex2
									{
										OFFSET 3.348503 0.000000 0.000000
										CHANNELS 3 Xrotation Yrotation Zrotation
										JOINT LeftHandIndex3
										{
											OFFSET 3.314552 0.000000 0.000000
											CHANNELS 3 Xrotation Yrotation Zrotation
											End Site
											{
												OFFSET -1.032898 3.075485 0.678796
											}
										}
									}
								}
								JOINT LeftHandMiddle1
								{
									OFFSET 8.124603 0.000000 0.000000
									CHANNELS 3 Xrotation Yrotation Zrotation
									JOINT LeftHandMiddle2
									{
										OFFSET 4.166275 0.000000 0.000000
										CHANNELS 3 Xrotation Yrotation Zrotation
										JOINT LeftHandMiddle3
										{
											OFFSET 3.018135 0.000000 0.000000
											CHANNELS 3 Xrotation Yrotation Zrotation
											End Site
											{
												OFFSET -1.032700 2.767982 0.617226
											}
										}
									}
								}
								JOINT LeftHandRing1
								{
									OFFSET 8.571686 -0.031357 -2.884048
									CHANNELS 3 Xrotation Yrotation Zrotation
									JOINT LeftHandRing2
									{
										OFFSET 3.671181 0.000000 0.000000
										CHANNELS 3 Xrotation Yrotation Zrotation
										JOINT LeftHandRing3
										{
											OFFSET 2.728851 0.000000 0.000000
											CHANNELS 3 Xrotation Yrotation Zrotation
											End Site
											{
												OFFSET -0.815796 2.539223 0.577389
											}
										}
									}
								}
								JOINT LeftHandPinky1
								{
									OFFSET 7.854515 -0.675232 -5.213020
									CHANNELS 3 Xrotation Yrotation Zrotation
									JOINT LeftHandPinky2
									{
										OFFSET 3.068596 0.000000 0.000000
										CHANNELS 3 Xrotation Yrotation Zrotation
										JOINT LeftHandPinky3
										{
											OFFSET 2.396042 0.000000 0.000000
											CHANNELS 3 Xrotation Yrotation Zrotation
											End Site
											{
												OFFSET -0.524597 2.267998 0.567429
											}
										}
									}
								}
							}
							JOINT LeftSleeve
							{
								OFFSET 19.684509 -0.200119 0.476146
								CHANNELS 3 Xrotation Yrotation Zrotation
								End Site
								{
									OFFSET -0.031017 25.731133 -0.002868
								}
							}
						}
					}
				}
				JOINT RightShoulder
				{
					OFFSET -4.395900 7.341202 -1.870200
					CHANNELS 3 Xrotation Yrotation Zrotation
					JOINT RightArm
					{
						OFFSET -8.071453 0.936867 -2.181100
						CHANNELS 3 Xrotation Yrotation Zrotation
						JOINT RightForeArm
						{
							OFFSET -31.272011 0.000000 0.000000
							CHANNELS 3 Xrotation Yrotation Zrotation
							JOINT RightHand
							{
								OFFSET -31.771019 0.000000 0.000000
								CHANNELS 3 Xrotation Yrotation Zrotation
								JOINT RightHandThumb1
								{
									OFFSET -2.886520 -2.557808 4.416626
									CHANNELS 3 Xrotation Yrotation Zrotation
									JOINT RightHandThumb2
									{
										OFFSET -2.371056 -1.368927 1.368928
										CHANNELS 3 Xrotation Yrotation Zrotation
										JOINT RightHandThumb3
										{
											OFFSET -2.243362 -1.295204 1.295206
											CHANNELS 3 Xrotation Yrotation Zrotation
											End Site
											{
												OFFSET 0.332642 2.876938 0.020047
											}
										}
									}
								}
								JOINT RightHandIndex1
								{
									OFFSET -8.568993 -0.641953 3.120017
									CHANNELS 3 Xrotation Yrotation Zrotation
									JOINT RightHandIndex2
									{
										OFFSET -3.348518 0.000000 0.000000
										CHANNELS 3 Xrotation Yrotation Zrotation
										JOINT RightHandIndex3
										{
											OFFSET -3.314552 0.000000 0.000000
											CHANNELS 3 Xrotation Yrotation Zrotation
											End Site
											{
												OFFSET 1.032898 3.075478 0.678804
											}
										}
									}
								}
								JOINT RightHandMiddle1
								{
									OFFSET -8.124588 0.000000 0.000000
									CHANNELS 3 Xrotation Yrotation Zrotation
									JOINT RightHandMiddle2
									{
										OFFSET -4.166275 0.000000 0.000000
										CHANNELS 3 Xrotation Yrotation Zrotation
										JOINT RightHandMiddle3
										{
											OFFSET -3.018097 0.000000 0.000000
											CHANNELS 3 Xrotation Yrotation Zrotation
											End Site
											{
												OFFSET 1.032700 2.767937 0.617197
											}
										}
									}
								}
								JOINT RightHandRing1
								{
									OFFSET -8.571747 -0.031349 -2.884061
									CHANNELS 3 Xrotation Yrotation Zrotation
									JOINT RightHandRing2
									{
										OFFSET -3.671204 0.000000 0.000000
										CHANNELS 3 Xrotation Yrotation Zrotation
										JOINT RightHandRing3
										{
											OFFSET -2.728874 0.000000 0.000000
											CHANNELS 3 Xrotation Yrotation Zrotation
											End Site
											{
												OFFSET 0.815804 2.539261 0.577413
											}
										}
									}
								}
								JOINT RightHandPinky1
								{
									OFFSET -7.854561 -0.675247 -5.212970
									CHANNELS 3 Xrotation Yrotation Zrotation
									JOINT RightHandPinky2
									{
										OFFSET -3.068550 0.000000 0.000000
										CHANNELS 3 Xrotation Yrotation Zrotation
										JOINT RightHandPinky3
										{
											OFFSET -2.395981 0.000000 0.000000
											CHANNELS 3 Xrotation Yrotation Zrotation
											End Site
											{
												OFFSET 0.524605 2.267952 0.567413
											}
										}
									}
								}
							}
							JOINT RightSleeve
							{
								OFFSET -19.684753 -0.200165 0.476065
								CHANNELS 3 Xrotation Yrotation Zrotation
								End Site
								{
									OFFSET 0.031342 25.731255 -0.002917
								}
							}
						}
					}
				}
				JOINT Hood
				{
					OFFSET 0.369700 14.447800 -5.317800
					CHANNELS 3 Xrotation Yrotation Zrotation
					JOINT Hood1
					{
						OFFSET 0.001700 -5.553802 -5.895100
						CHANNELS 3 Xrotation Yrotation Zrotation
						JOINT Hood2
						{
							OFFSET -0.000200 -8.380501 0.763600
							CHANNELS 3 Xrotation Yrotation Zrotation
							End Site
							{
								OFFSET 0.000000 8.415215 0.000000
							}
						}
					}
				}
				JOINT Left_Breast
				{
					OFFSET 5.682500 3.120102 3.188800
					CHANNELS 3 Xrotation Yrotation Zrotation
					End Site
					{
						OFFSET 0.000000 10.528564 0.000000
					}
				}
				JOINT Right_Breast
				{
					OFFSET -4.947600 3.120102 3.185900
					CHANNELS 3 Xrotation Yrotation Zrotation
					End Site
					{
						OFFSET 0.000000 10.528564 0.000000
					}
				}
				JOINT Whistle
				{
					OFFSET 0.368200 11.471298 0.095400
					CHANNELS 3 Xrotation Yrotation Zrotation
					JOINT Whistle1
					{
						OFFSET -0.002000 -6.349899 7.479800
						CHANNELS 3 Xrotation Yrotation Zrotation
						JOINT Whistle2
						{
							OFFSET -0.001300 -8.217598 4.717600
							CHANNELS 3 Xrotation Yrotation Zrotation
							End Site
							{
								OFFSET 0.000000 9.475479 0.000000
							}
						}
					}
				}
			}
		}
		JOINT Belly
		{
			OFFSET 0.212400 1.593002 3.163700
			CHANNELS 3 Xrotation Yrotation Zrotation
			End Site
			{
				OFFSET 0.000000 7.496635 0.000000
			}
		}
	}
	JOINT FitGrandmaFacialAnim_Joint
	{
		OFFSET 1.150000 -86.211197 -1.220100
		CHANNELS 3 Xrotation Yrotation Zrotation
		End Site
		{
			OFFSET 0.000000 31.666618 0.000000
		}
	}
}
MOTION
Frames: 4
Frame Time: 0.016667
-0.483316 52.219322 -2.152424 0.522857 -175.493788 -8.690115 -0.000000 0.000001 0.000000 -75.653347 -13.193766 16.869826 118.382751 5.454182 3.170278 -38.681298 5.699586 -13.868960 0.000000 -0.000002 0.000000 -0.000002 -0.000001 -0.000000 0.000001 0.000000 -0.000001 -54.004236 9.007364 -26.934552 106.993827 3.191342 -0.683627 -35.217514 -10.021694 26.497172 0.000001 -0.000002 -0.000000 0.000001 -0.000000 -0.000002 -0.000002 -0.000002 0.000001 4.060220 3.366840 -2.434044 8.251958 6.771406 -4.731508 8.251965 6.771408 -4.731512 -1.987047 28.311177 6.773752 5.084069 36.051835 -22.849339 0.000001 0.000000 -0.000000 0.000001 0.000000 -0.000000 0.000001 0.000000 -0.000000 0.000001 0.000000 -0.000000 0.000001 0.000000 -0.000000 0.000001 0.000000 -0.000000 0.000001 0.000000 -0.000000 0.000001 0.000000 -0.000000 0.000001 0.000000 -0.000000 0.000001 0.000000 -0.000000 0.000001 0.000000 -0.000000 0.000001 0.000000 -0.000000 0.000001 0.000000 -0.000000 0.000001 0.000000 -0.000000 0.000001 0.000000 -0.000000 0.000001 0.000000 -0.000000 0.000001 0.000000 -0.000000 0.000001 0.000000 -0.000000 0.000001 0.000000 -0.000000 1.033491 -15.235094 -11.647767 3.042447 -0.761207 -32.016358 40.133556 -33.388178 -1.908144 12.866418 10.638178 2.322252 -9.419905 -10.451137 8.422290 2.321130 6.714503 2.170933 -0.000002 -0.000000 0.000001 -1.239084 -9.024533 -4.969424 -0.126837 0.207654 -21.714373 -0.000002 -0.000000 -0.000001 1.309890 -1.012400 -8.080151 -0.178468 -0.773443 -14.430101 -0.000003 0.000001 -0.000001 -0.365422 2.944778 -4.498891 -0.505479 -2.597465 -30.199500 -0.000000 0.000002 -0.000001 0.029747 5.968250 0.715910 -0.699253 -5.770496 -39.699317 -0.000003 0.000000 -0.000002 -0.000000 -0.000000 0.000000 3.185203 -18.297167 12.806540 12.807458 -13.875009 59.330520 29.940793 40.956895 -3.738853 19.089491 -1.945247 12.311416 -7.852784 4.769989 -9.664436 -0.642368 -0.093875 -1.289341 -0.000000 0.000001 -0.000001 -1.233007 0.595987 8.695205 0.120533 -1.119648 16.859791 0.000001 -0.000000 0.000001 -1.142348 -1.774145 0.545296 -0.357888 1.142275 22.116024 0.000001 -0.000002 -0.000002 1.909919 -0.146213 -2.803258 -0.619895 3.110094 28.344716 -0.000002 0.000000 -0.000001 4.769424 -2.279016 -7.778120 -1.320422 7.677284 37.620180 -0.000003 0.000000 -0.000000 0.000003 -0.000001 -0.000000 0.000001 -0.000000 -0.000000 0.000001 -0.000000 -0.000000 0.000001 -0.000000 -0.000000 0.000001 -0.000000 -0.000000 0.000001 -0.000000 -0.000000 0.000001 -0.000000 0.000000 -0.000001 -0.000000 0.000000 -0.000001 -0.000000 0.000000 -0.000000 -0.000000 0.000001 -0.000000 0.000001 0.000000 
-0.485882 52.218414 -2.160483 0.500253 -175.497654 -8.691946 -0.000000 -0.000000 -0.000001 -75.671420 -13.193890 16.865632 118.385456 5.453792 3.170178 -38.688818 5.701658 -13.869283 0.000000 0.000000 0.000000 0.000002 0.000001 0.000000 -0.000000 0.000000 0.000003 -54.023921 9.001785 -26.950448 106.994743 3.189127 -0.683678 -35.221182 -10.010372 26.476957 0.000000 0.000001 -0.000000 0.000001 0.000003 0.000001 -0.000002 -0.000001 -0.000002 4.054986 3.364428 -2.433506 8.241341 6.766911 -4.730118 8.241346 6.766908 -4.730120 -1.988027 28.342459 6.708602 5.079928 36.041177 -22.785397 -0.000001 0.000000 0.000000 -0.000001 0.000000 0.000000 -0.000001 0.000000 0.000000 -0.000001 0.000000 0.000000 -0.000001 0.000000 0.000000 -0.000001 0.000000 0.000000 -0.000001 0.000000 0.000000 -0.000001 0.000000 0.000000 -0.000001 0.000000 0.000000 -0.000001 0.000000 0.000000 -0.000001 0.000000 0.000000 -0.000001 0.000000 0.000000 -0.000001 0.000000 0.000000 -0.000001 0.000000 0.000000 -0.000001 0.000000 0.000000 -0.000001 0.000000 0.000000 -0.000001 0.000000 0.000000 -0.000001 0.000000 0.000000 -0.000001 0.000000 0.000000 1.032232 -15.314488 -11.643145 3.086116 -0.688670 -32.029445 40.144550 -33.392645 -1.914888 12.845101 10.616978 2.348254 -9.419901 -10.451146 8.422297 2.321127 6.714507 2.170931 0.000000 0.000001 -0.000000 -1.239128 -9.024835 -4.949857 -0.126840 0.207654 -21.714373 0.000002 -0.000001 0.000000 1.310097 -1.010945 -8.062245 -0.178465 -0.773444 -14.430100 -0.000006 -0.000001 0.000002 -0.365323 2.945776 -4.487014 -0.505475 -2.597467 -30.199504 0.000000 0.000003 -0.000003 0.029732 5.969897 0.729943 -0.699255 -5.770495 -39.699317 0.000001 0.000000 -0.000003 0.000000 -0.000000 0.000000 3.178406 -18.230238 12.777576 12.845295 -13.905123 59.356680 29.929384 40.938689 -3.736778 19.065804 -1.958729 12.297313 -7.852779 4.769985 -9.664438 -0.642362 -0.093873 -1.289342 -0.000003 0.000002 -0.000002 -1.233019 0.595986 8.695225 0.120534 -1.119648 16.859793 -0.000003 -0.000000 0.000001 -1.142368 -1.774138 0.545291 -0.357888 1.142275 22.116030 -0.000001 -0.000000 -0.000002 1.909922 -0.146221 -2.803241 -0.619900 3.110095 28.344716 0.000000 -0.000001 0.000001 4.769422 -2.279022 -7.778128 -1.320422 7.677283 37.620183 0.000001 0.000001 -0.000003 -0.000002 -0.000000 -0.000000 0.000001 -0.000001 0.000001 0.000001 -0.000001 0.000001 0.000001 -0.000001 0.000001 0.000001 -0.000001 0.000001 0.000001 -0.000001 0.000001 0.000001 -0.000001 0.000002 -0.000001 -0.000002 -0.000000 -0.000001 -0.000002 -0.000000 0.000000 -0.000000 -0.000000 -0.000000 -0.000000 -0.000001 
-0.492270 52.218132 -2.167981 0.482812 -175.487340 -8.692991 -0.000000 -0.000000 0.000001 -75.691583 -13.184036 16.857952 118.387751 5.454755 3.170114 -38.694951 5.696280 -13.858581 -0.000000 -0.000000 -0.000000 -0.000000 -0.000001 0.000000 0.000000 -0.000000 -0.000002 -54.022801 8.988660 -26.967023 106.994442 3.185135 -0.683841 -35.243230 -10.009471 26.465989 0.000000 0.000001 -0.000000 -0.000004 0.000002 0.000001 -0.000000 -0.000002 0.000000 4.051868 3.361859 -2.433027 8.234956 6.762118 -4.728765 8.234950 6.762122 -4.728765 -1.961538 28.352935 6.666012 5.081373 36.036669 -22.765797 -0.000002 0.000000 -0.000000 -0.000002 0.000000 -0.000000 -0.000002 0.000000 -0.000000 -0.000002 0.000000 -0.000000 -0.000002 0.000000 -0.000000 -0.000002 0.000000 -0.000000 -0.000002 0.000000 -0.000000 -0.000002 0.000000 -0.000000 -0.000002 0.000000 -0.000000 -0.000002 0.000000 -0.000000 -0.000002 0.000000 -0.000000 -0.000002 0.000000 -0.000000 -0.000002 0.000000 -0.000000 -0.000002 0.000000 -0.000000 -0.000002 0.000000 -0.000000 -0.000002 0.000000 -0.000000 -0.000002 0.000000 -0.000000 -0.000002 0.000000 -0.000000 -0.000002 0.000000 -0.000000 1.018272 -15.384834 -11.671201 3.130074 -0.613950 -31.998432 40.157045 -33.422434 -1.934985 12.833492 10.604153 2.361208 -9.418940 -10.451631 8.419017 2.321126 6.714507 2.170931 0.000001 -0.000000 0.000001 -1.238326 -9.020189 -4.898257 -0.126837 0.207653 -21.714379 -0.000002 -0.000000 -0.000001 1.310621 -1.007227 -8.016513 -0.178466 -0.773444 -14.430101 -0.000000 -0.000001 0.000000 -0.365119 2.948512 -4.454887 -0.505473 -2.597465 -30.199504 -0.000001 0.000002 -0.000001 0.035285 5.973096 0.766561 -0.699260 -5.770493 -39.699320 -0.000000 -0.000002 0.000001 -0.000000 -0.000001 -0.000000 3.169457 -18.205179 12.731743 12.862356 -13.921442 59.407674 29.931043 40.882364 -3.744460 19.093905 -1.984737 12.297569 -7.852785 4.769975 -9.664462 -0.642366 -0.093874 -1.289343 -0.000000 -0.000002 -0.000003 -1.233017 0.595987 8.695203 0.120532 -1.119648 16.859786 -0.000001 -0.000000 0.000001 -1.142357 -1.774142 0.545291 -0.357890 1.142277 22.116024 -0.000001 -0.000001 -0.000002 1.909919 -0.146223 -2.803255 -0.619902 3.110093 28.344716 -0.000000 0.000000 -0.000001 4.769418 -2.279024 -7.778141 -1.320421 7.677279 37.620183 0.000000 -0.000000 0.000001 0.000002 -0.000001 0.000000 0.000001 -0.000001 -0.000001 0.000001 -0.000001 -0.000001 0.000001 -0.000001 -0.000001 0.000001 -0.000001 -0.000001 0.000001 -0.000001 -0.000001 0.000001 -0.000001 -0.000001 0.000000 0.000002 0.000000 0.000000 0.000002 0.000000 0.000000 -0.000000 -0.000001 -0.000000 -0.000000 0.000001 
-0.497839 52.218170 -2.175856 0.465566 -175.478201 -8.694072 -0.000000 -0.000000 0.000001 -75.707893 -13.173216 16.851060 118.391016 5.456504 3.169747 -38.705582 5.691225 -13.848424 -0.000000 0.000002 0.000000 -0.000000 -0.000003 -0.000001 0.000000 0.000000 0.000000 -54.022015 8.977036 -26.981587 106.994032 3.180369 -0.683674 -35.262272 -10.008997 26.457062 -0.000000 0.000001 0.000000 0.000002 -0.000000 -0.000001 -0.000000 -0.000000 0.000000 4.048020 3.360568 -2.430829 8.227051 6.760015 -4.723983 8.227048 6.760013 -4.723988 -1.937321 28.365922 6.632023 5.105500 36.028281 -22.760304 0.000001 0.000000 -0.000000 0.000001 0.000000 -0.000000 0.000001 0.000000 -0.000000 0.000001 0.000000 -0.000000 0.000001 0.000000 -0.000000 0.000001 0.000000 -0.000000 0.000001 0.000000 -0.000000 0.000001 0.000000 -0.000000 0.000001 0.000000 -0.000000 0.000001 0.000000 -0.000000 0.000001 0.000000 -0.000000 0.000001 0.000000 -0.000000 0.000001 0.000000 -0.000000 0.000001 0.000000 -0.000000 0.000001 0.000000 -0.000000 0.000001 0.000000 -0.000000 0.000001 0.000000 -0.000000 0.000001 0.000000 -0.000000 0.000001 0.000000 -0.000000 1.010119 -15.419007 -11.688376 3.153023 -0.589276 -31.984659 40.162615 -33.418087 -1.949328 12.827811 10.613328 2.381312 -9.417398 -10.452408 8.413788 2.321127 6.714505 2.170933 0.000001 -0.000000 0.000001 -1.237237 -9.013924 -4.828700 -0.126836 0.207653 -21.714375 0.000001 -0.000001 0.000000 1.311337 -1.002225 -7.954894 -0.178466 -0.773444 -14.430100 -0.000002 0.000000 -0.000003 -0.360603 2.951157 -4.408623 -0.505478 -2.597466 -30.199497 0.000001 0.000000 0.000002 0.043674 5.977966 0.821837 -0.699260 -5.770496 -39.699320 -0.000003 -0.000000 -0.000002 0.000001 0.000000 -0.000000 3.165849 -18.194354 12.713015 12.873440 -13.941514 59.432659 29.941456 40.850945 -3.760495 19.119772 -2.010039 12.308802 -7.852766 4.769963 -9.664433 -0.642361 -0.093872 -1.289344 -0.000001 0.000002 0.000003 -1.233003 0.595984 8.695230 0.120532 -1.119648 16.859788 -0.000001 -0.000000 -0.000000 -1.142357 -1.774144 0.545318 -0.357888 1.142275 22.116026 0.000001 0.000000 -0.000002 1.909924 -0.146227 -2.803241 -0.619902 3.110095 28.344716 0.000005 0.000000 -0.000001 4.769431 -2.279018 -7.778102 -1.320420 7.677282 37.620183 -0.000003 0.000001 -0.000002 0.000002 -0.000001 -0.000001 0.000001 0.000000 0.000002 0.000001 0.000000 0.000002 0.000001 0.000000 0.000002 0.000001 0.000000 0.000002 0.000001 0.000000 0.000002 0.000001 -0.000000 0.000002 -0.000001 0.000002 0.000001 -0.000001 0.000002 0.000001 0.000000 -0.000000 0.000000 -0.000000 -0.000000 0.000001 
